<svg width="1880" height="536" viewBox="0 0 1880 536" fill="none" xmlns="http://www.w3.org/2000/svg">
<path d="M1773.43 223.635H1775.26L1812.79 158H1877.37L1811.57 268L1879.95 378H1813.7L1775.26 311.301H1773.43L1734.99 378H1669.19L1736.81 268L1671.17 158H1736.05L1773.43 223.635Z" fill="#404040" style="fill:#404040;fill:color(display-p3 0.2505 0.2505 0.2505);fill-opacity:1;"/>
<path d="M1486.07 158H1643.19V204.644H1543.82V244.602H1635.14V291.246H1543.82V331.356H1642.74V378H1486.07V158Z" fill="#404040" style="fill:#404040;fill:color(display-p3 0.2505 0.2505 0.2505);fill-opacity:1;"/>
<path d="M1268.28 158H1458.07V204.644H1391.67V378H1334.84V204.644H1268.28V158Z" fill="#404040" style="fill:#404040;fill:color(display-p3 0.2505 0.2505 0.2505);fill-opacity:1;"/>
<path fill-rule="evenodd" clip-rule="evenodd" d="M1071.94 158H1165.54C1181.95 158 1196.24 160.988 1208.39 166.964C1220.65 172.94 1230.12 181.55 1236.81 192.793C1243.6 203.935 1246.99 217.102 1246.99 232.296C1246.99 247.59 1243.54 260.707 1236.66 271.646C1230.18 281.987 1221.08 289.931 1209.34 295.477L1254.28 378H1191.22L1152.26 304.616H1129.68V378H1071.94V158ZM1171.16 256.605C1166.2 258.428 1159.92 259.34 1152.32 259.34H1129.68V204.34H1152.32C1159.72 204.34 1165.95 205.353 1171.01 207.378C1176.08 209.404 1179.93 212.494 1182.56 216.646C1185.3 220.698 1186.66 225.914 1186.66 232.296C1186.66 238.576 1185.3 243.741 1182.56 247.793C1179.93 251.743 1176.13 254.68 1171.16 256.605Z" fill="#404040" style="fill:#404040;fill:color(display-p3 0.2505 0.2505 0.2505);fill-opacity:1;"/>
<path d="M876.817 158H1033.94V204.644H934.56V244.602H1025.88V291.246H934.56V331.356H1033.48V378H876.817V158Z" fill="#404040" style="fill:#404040;fill:color(display-p3 0.2505 0.2505 0.2505);fill-opacity:1;"/>
<path d="M737.459 314.644H739.435L785.477 158H850.817L777.727 378H699.167L626.077 158H691.417L737.459 314.644Z" fill="#404040" style="fill:#404040;fill:color(display-p3 0.2505 0.2505 0.2505);fill-opacity:1;"/>
<path fill-rule="evenodd" clip-rule="evenodd" d="M2.11846 0H593.959L596.077 3.53065L300.261 536H295.816L0 3.53076L2.11846 0ZM20.057 19.0421L293.038 510.409V182.831L20.057 19.0421ZM303.038 201.169V182.831L576.02 19.042L560.738 46.5492L555.879 55.2957L551.02 64.0421L535.738 91.5492L530.879 100.296L526.02 109.042L510.738 136.549L505.879 145.296L501.02 154.042L485.738 181.549L480.879 190.296L476.02 199.042L460.738 226.549L455.879 235.296L451.02 244.042L435.738 271.549L430.879 280.296L426.02 289.042L410.738 316.549L405.879 325.296L401.02 334.042L385.738 361.549L380.879 370.296L376.02 379.042L360.738 406.549L355.879 415.296L351.02 424.042L335.738 451.549L330.879 460.296L326.02 469.042L303.038 510.409V482.831V471.169V452.831V441.169V422.831V411.169V392.831V381.169V362.831V351.169V332.831V321.169V302.831V291.169V272.831V261.169V242.831V231.169V212.831V201.169ZM298.038 174.169L571.654 10H24.4234L298.038 174.169Z" fill="#404040" style="fill:#404040;fill:color(display-p3 0.2505 0.2505 0.2505);fill-opacity:1;"/>
<path d="M560.738 46.5492L303.038 201.169V212.831L551.02 64.0421L555.879 55.2957L560.738 46.5492Z" fill="#4F39F6" style="fill:#4F39F6;fill:color(display-p3 0.3109 0.2244 0.9663);fill-opacity:1;"/>
<path d="M535.738 91.5492L303.038 231.169V242.831L526.02 109.042L530.879 100.296L535.738 91.5492Z" fill="#615FFF" style="fill:#615FFF;fill:color(display-p3 0.3822 0.3719 1.0000);fill-opacity:1;"/>
<path d="M510.738 136.549L303.038 261.169V272.831L501.02 154.042L505.879 145.296L510.738 136.549Z" fill="#7C86FF" style="fill:#7C86FF;fill:color(display-p3 0.4878 0.5265 1.0000);fill-opacity:1;"/>
<path d="M485.738 181.549L303.038 291.169V302.831L476.02 199.042L480.879 190.296L485.738 181.549Z" fill="#A3B3FF" style="fill:#A3B3FF;fill:color(display-p3 0.6391 0.7021 1.0000);fill-opacity:1;"/>
<path d="M460.738 226.549L303.038 321.169V332.831L451.02 244.042L455.879 235.296L460.738 226.549Z" fill="#8EC5FF" style="fill:#8EC5FF;fill:color(display-p3 0.5566 0.7732 1.0000);fill-opacity:1;"/>
<path d="M435.738 271.549L303.038 351.169V362.831L426.02 289.042L430.879 280.296L435.738 271.549Z" fill="#BEDBFF" style="fill:#BEDBFF;fill:color(display-p3 0.7451 0.8587 1.0000);fill-opacity:1;"/>
<path d="M410.738 316.549L303.038 381.169V392.831L401.02 334.042L405.879 325.296L410.738 316.549Z" fill="#DBEAFE" style="fill:#DBEAFE;fill:color(display-p3 0.8582 0.9178 0.9973);fill-opacity:1;"/>
<path d="M385.738 361.549L303.038 411.169V422.831L376.02 379.042L380.879 370.296L385.738 361.549Z" fill="#FFFBEB" style="fill:#FFFBEB;fill:color(display-p3 1.0000 0.9845 0.9200);fill-opacity:1;"/>
<path d="M360.738 406.549L303.038 441.169V452.831L351.02 424.042L355.879 415.296L360.738 406.549Z" fill="#FEF3C6" style="fill:#FEF3C6;fill:color(display-p3 0.9970 0.9531 0.7775);fill-opacity:1;"/>
<path d="M335.738 451.549L303.038 471.169V482.831L326.02 469.042L330.879 460.296L335.738 451.549Z" fill="#FEE685" style="fill:#FEE685;fill:color(display-p3 0.9957 0.9012 0.5222);fill-opacity:1;"/>
</svg>
