<svg width="598" height="536" viewBox="0 0 598 536" fill="none" xmlns="http://www.w3.org/2000/svg">
<path fill-rule="evenodd" clip-rule="evenodd" d="M3.07997 0H594.92L597.038 3.53065L301.222 536H296.778L0.961517 3.53076L3.07997 0ZM21.0185 19.0421L294 510.409V182.831L21.0185 19.0421ZM304 201.169V182.831L576.981 19.042L561.7 46.5492L556.841 55.2957L551.981 64.0421L536.7 91.5492L531.841 100.296L526.981 109.042L511.7 136.549L506.841 145.296L501.981 154.042L486.7 181.549L481.841 190.296L476.981 199.042L461.7 226.549L456.841 235.296L451.981 244.042L436.7 271.549L431.841 280.296L426.981 289.042L411.7 316.549L406.841 325.296L401.981 334.042L386.7 361.549L381.841 370.296L376.981 379.042L361.7 406.549L356.841 415.296L351.981 424.042L336.7 451.549L331.841 460.296L326.981 469.042L304 510.409V482.831V471.169V452.831V441.169V422.831V411.169V392.831V381.169V362.831V351.169V332.831V321.169V302.831V291.169V272.831V261.169V242.831V231.169V212.831V201.169ZM299 174.169L572.615 10H25.3849L299 174.169Z" fill="#404040" style="fill:#404040;fill:color(display-p3 0.2505 0.2505 0.2505);fill-opacity:1;"/>
<path d="M561.7 46.5492L304 201.169V212.831L551.981 64.0421L556.841 55.2957L561.7 46.5492Z" fill="#4F39F6" style="fill:#4F39F6;fill:color(display-p3 0.3109 0.2244 0.9663);fill-opacity:1;"/>
<path d="M536.7 91.5492L304 231.169V242.831L526.981 109.042L531.841 100.296L536.7 91.5492Z" fill="#615FFF" style="fill:#615FFF;fill:color(display-p3 0.3822 0.3719 1.0000);fill-opacity:1;"/>
<path d="M511.7 136.549L304 261.169V272.831L501.981 154.042L506.841 145.296L511.7 136.549Z" fill="#7C86FF" style="fill:#7C86FF;fill:color(display-p3 0.4878 0.5265 1.0000);fill-opacity:1;"/>
<path d="M486.7 181.549L304 291.169V302.831L476.981 199.042L481.841 190.296L486.7 181.549Z" fill="#A3B3FF" style="fill:#A3B3FF;fill:color(display-p3 0.6391 0.7021 1.0000);fill-opacity:1;"/>
<path d="M461.7 226.549L304 321.169V332.831L451.981 244.042L456.841 235.296L461.7 226.549Z" fill="#8EC5FF" style="fill:#8EC5FF;fill:color(display-p3 0.5566 0.7732 1.0000);fill-opacity:1;"/>
<path d="M436.7 271.549L304 351.169V362.831L426.981 289.042L431.841 280.296L436.7 271.549Z" fill="#BEDBFF" style="fill:#BEDBFF;fill:color(display-p3 0.7451 0.8587 1.0000);fill-opacity:1;"/>
<path d="M411.7 316.549L304 381.169V392.831L401.981 334.042L406.841 325.296L411.7 316.549Z" fill="#DBEAFE" style="fill:#DBEAFE;fill:color(display-p3 0.8582 0.9178 0.9973);fill-opacity:1;"/>
<path d="M386.7 361.549L304 411.169V422.831L376.981 379.042L381.841 370.296L386.7 361.549Z" fill="#FFFBEB" style="fill:#FFFBEB;fill:color(display-p3 1.0000 0.9845 0.9200);fill-opacity:1;"/>
<path d="M361.7 406.549L304 441.169V452.831L351.981 424.042L356.841 415.296L361.7 406.549Z" fill="#FEF3C6" style="fill:#FEF3C6;fill:color(display-p3 0.9970 0.9531 0.7775);fill-opacity:1;"/>
<path d="M336.7 451.549L304 471.169V482.831L326.981 469.042L331.841 460.296L336.7 451.549Z" fill="#FEE685" style="fill:#FEE685;fill:color(display-p3 0.9957 0.9012 0.5222);fill-opacity:1;"/>
</svg>
